# xmcd CD database file
# Copyright (C) 1993-1998 Ti Kan
# 
# Track frame offsets:
#     150
#     11015
#     23428
#     37213
#     49463
#     61288
#     76300
#     89963
#     104388
#     122638
#     136138
#     147863
#     163513
#     177363
#     194313
#     206075
#     220138
#     232738
#     245388
#     260813
#     279213
# 
# Disc length: 3863 seconds
# 
# Revision: 1
# Processed by: cddbd v1.4b41PL1 Copyright (c) Steve Scherf et al.
# Submitted via: DiscPlay 4.0.4
# 
DISCID=2e0f1515
DTITLE=Various Artist - The Sound Of Wales
DYEAR=1900
DGENRE=
TTITLE0=Land Of My Father's
TTITLE1=Where Shall I Be
TTITLE2=Calon Lan
TTITLE3=My Old Kentucky Home
TTITLE4=Deus Salutis
TTITLE5=Sarah
TTITLE6=All Through The Night
TTITLE7=Speed Your Journey
TTITLE8=How Great Thou Art
TTITLE9=The Lord's Prayer
TTITLE10=We'll keep A Welcome
TTITLE11=Aberystwyth
TTITLE12=In From Finlandia
TTITLE13=Unwaith Eto'n Nghymru Ammwyl
TTITLE14=Mil Harddach Wyt Na'r Rhosyn Gwyn
TTITLE15=Christus Redemtor
TTITLE16=Rise Up Shepard And Follow
TTITLE17=Anvil Chorus
TTITLE18=Deep Harmony
TTITLE19=My Lord What A Morning
TTITLE20=Going Home
EXTD=
EXTT0=
EXTT1=
EXTT2=
EXTT3=
EXTT4=
EXTT5=
EXTT6=
EXTT7=
EXTT8=
EXTT9=
EXTT10=
EXTT11=
EXTT12=
EXTT13=
EXTT14=
EXTT15=
EXTT16=
EXTT17=
EXTT18=
EXTT19=
EXTT20=
PLAYORDER=
